<svg xmlns="http://www.w3.org/2000/svg" viewBox="0 0 1280 460">
  <!-- Upper photograph only. Official transparent hull layers supply the complete lower hull; no original blue paint underneath. -->
  <g fill="white">
    <path d="M103 255 Q105 246 118 246 L174 245 Q214 246 233 274 L249 316 253 330 276 332 291 318 309 310 305 322 379 301 404 158 407 113 418 116 731 158 750 176 875 300 896 300 896 291 1007 291 1008 300 1096 299 1105 278 1129 283 1117 296 1201 300 1219 314 1222 317 1217 320 1110 329 970 337 730 347 500 352 350 361 275 373 200 389 211 429 173 421 137 411 126 398 125 371 117 367 105 348 101 324 Z"/>
    <path d="M428 115 425 49 428 48 431 94 435 94 435 112Z"/>
    <path d="M423 42 436 40 437 45 424 47Z"/>
    <path d="M432 72 439 65 449 62 452 72 448 77 433 79Z"/>
    <path d="M422 113 425 97 440 96 447 114Z"/>
    <path d="M455 100 469 95 473 96 474 110 468 117 459 109Z"/>
  </g>
  <g fill="none" stroke="white" stroke-width="4" stroke-linecap="round" stroke-linejoin="round">
    <path d="M410 156 417 116 469 117 491 161"/>
    <path d="M903 280 942 256 1064 257"/>
    <path d="M945 301 980 273 1099 273"/>
    <path d="M1010 285 1105 230 Q1114 224 1122 226 L1155 230"/>
    <path d="M1046 300 1133 236 Q1146 226 1156 231 L1168 233 Q1180 236 1175 251 L1154 299"/>
  </g>
</svg>
